<svg xmlns="http://www.w3.org/2000/svg" width="24" height="24" viewBox="0 0 24 24">
    <g data-name="Group 6953">
        <circle data-name="Ellipse 955" cx="1.025" cy="1.025" r="1.025" transform="translate(6.535 20.915)" fill="#3a469d"/>
        <circle data-name="Ellipse 956" cx="1.025" cy="1.025" r="1.025" transform="translate(6.535 18.183)" fill="#3a469d"/>
        <circle data-name="Ellipse 957" cx="1.025" cy="1.025" r="1.025" transform="translate(1.07 15.45)" fill="#3a469d"/>
        <circle data-name="Ellipse 958" cx="1.025" cy="1.025" r="1.025" transform="translate(3.802 15.45)" fill="#3a469d"/>
        <circle data-name="Ellipse 959" cx="1.025" cy="1.025" r="1.025" transform="translate(6.079 4.975)" fill="#3a469d"/>
        <circle data-name="Ellipse 960" cx="1.025" cy="1.025" r="1.025" transform="translate(8.812 4.975)" fill="#3a469d"/>
        <circle data-name="Ellipse 961" cx="1.025" cy="1.025" r="1.025" transform="translate(11.545 4.975)" fill="#3a469d"/>
        <circle data-name="Ellipse 962" cx="1.025" cy="1.025" r="1.025" transform="translate(14.277 4.975)" fill="#3a469d"/>
        <circle data-name="Ellipse 963" cx="1.025" cy="1.025" r="1.025" transform="translate(17.01 15.905)" fill="#3a469d"/>
        <circle data-name="Ellipse 964" cx="1.025" cy="1.025" r="1.025" transform="translate(17.01 13.105)" fill="#3a469d"/>
        <circle data-name="Ellipse 965" cx="1.025" cy="1.025" r="1.025" transform="translate(17.01 10.372)" fill="#3a469d"/>
        <circle data-name="Ellipse 966" cx="1.025" cy="1.025" r="1.025" transform="translate(17.01 7.639)" fill="#3a469d"/>
        <circle data-name="Ellipse 967" cx="1.025" cy="1.025" r="1.025" transform="translate(6.535 15.45)" fill="#3a469d"/>
        <circle data-name="Ellipse 968" cx="1.025" cy="1.025" r="1.025" transform="translate(8.584 13.423)" fill="#3a469d"/>
        <circle data-name="Ellipse 969" cx="1.025" cy="1.025" r="1.025" transform="translate(10.406 11.624)" fill="#3a469d"/>
        <circle data-name="Ellipse 970" cx="1.025" cy="1.025" r="1.025" transform="translate(12.455 9.575)" fill="#3a469d"/>
        <circle data-name="Ellipse 971" cx="1.025" cy="1.025" r="1.025" transform="translate(14.277 7.617)" fill="#3a469d"/>
        <circle data-name="Ellipse 972" cx="1.025" cy="1.025" r="1.025" transform="translate(17.01 4.975)" fill="#3a469d"/>
        <circle data-name="Ellipse 973" cx="1.025" cy="1.025" r="1.025" transform="translate(18.831 3.062)" fill="#3a469d"/>
        <circle data-name="Ellipse 974" cx="1.025" cy="1.025" r="1.025" transform="translate(20.881 1.127)" fill="#3a469d"/>
    </g>
</svg>
